<svg width="9" height="10" viewBox="0 0 9 10" fill="none" xmlns="http://www.w3.org/2000/svg">
<path d="M0.371512 0.953727C0.0522694 1.27297 0.0522694 1.79061 0.371512 2.10981L3.26176 5.00001L0.371521 7.89021C0.0522784 8.20949 0.0522784 8.72712 0.371521 9.04632C0.690764 9.36552 1.20839 9.36552 1.52759 9.04632L4.41779 6.15603L7.30799 9.04632C7.62719 9.36552 8.14482 9.36552 8.46402 9.04632C8.78331 8.72704 8.78331 8.20949 8.46402 7.89021L5.57391 5.00001L8.46402 2.10981C8.78331 1.79061 8.78331 1.27297 8.46402 0.953727C8.14482 0.634492 7.62719 0.634492 7.30799 0.953727L4.41779 3.84389L1.52759 0.953727C1.20839 0.634484 0.690755 0.634484 0.371512 0.953727Z" fill="black"/>
</svg>
