<svg width="32" height="12" viewBox="0 0 32 12" fill="none" xmlns="http://www.w3.org/2000/svg">
<g clip-path="url(#clip0_8518_3)">
<path d="M0.167114 6.33081C0.167114 2.67833 2.82768 0.340332 5.84264 0.340332C8.97053 0.340332 11.3398 2.67833 11.3398 6.15277C11.3398 9.7731 8.8093 11.9974 5.63313 11.9974C2.55353 11.9974 0.167114 9.708 0.167114 6.33081H0.167114ZM8.9861 6.33081C8.9861 3.16538 7.67996 1.37953 5.66506 1.37953C3.8916 1.37953 2.52081 2.85636 2.52081 6.02258C2.52081 9.15586 3.90796 10.9582 5.85821 10.9582C7.71111 10.9582 8.9861 9.41546 8.9861 6.33081Z" fill="black"/>
<path d="M12.4364 11.2014L12.8718 11.1041C13.2612 11.0257 13.5167 10.8767 13.5167 10.3739V2.01251L12.4364 1.39527V0.941159L15.2738 0H15.4833V10.3739C15.4833 10.8931 15.7738 11.0555 16.1601 11.1363L16.5308 11.2014V11.8351H12.4364V11.2014ZM15.6609 7.61398L17.5628 5.73166C18.2077 5.08226 18.1275 4.62815 17.4343 4.49796L16.9179 4.4007V3.76777H20.9002V4.4007L20.4843 4.48384C20.0225 4.56414 19.5986 4.79213 19.2755 5.13402L17.4662 6.91517L21.0614 11.2994L20.9166 11.8837H18.95L15.6609 7.61398Z" fill="black"/>
<path d="M22.7702 9.35149V5.47078C22.7702 4.98373 22.5771 4.78922 22.1098 4.72412L21.6097 4.64569V4.06061L24.3505 3.54297H24.74V8.85189C24.74 10.2158 25.4814 10.5075 26.2198 10.5075C26.8245 10.5019 27.4159 10.3279 27.9286 10.0048V5.47078C27.9286 4.98373 27.7354 4.77275 27.2518 4.72412L26.7198 4.64569V4.06061L29.5097 3.54297H29.9123V10.1468C29.9123 10.5523 30.1219 10.7475 30.6219 10.8126L31.1671 10.8613V11.4644L28.4099 12.0001H28.0392V10.3742C27.4426 11.2503 26.3787 11.9977 25.1574 11.9977C23.9798 11.9977 22.7702 11.1695 22.7702 9.35149V9.35149Z" fill="black"/>
</g>
<defs>
<clipPath id="clip0_8518_3">
<rect width="31" height="12" fill="white" transform="translate(0.167114)"/>
</clipPath>
</defs>
</svg>
